inDegrees=no
num_controls=7
num_derivatives=13
num_iterations=131
num_multipliers=7
num_parameters=0
num_slacks=7
num_states=26
objective=0.476881
objective_accelerations=0.044232
objective_balance=0.003634
objective_effort=0.040524
objective_height=0.382825
objective_ligament=0.005665
solver_duration=1837.860481
status=Solve_Succeeded
success=true
DataType=double
version=3
OpenSimVersion=4.5
endheader
time	/jointset/ground_pelvis/pelvis_tilt/value	/jointset/ground_pelvis/pelvis_tx/value	/jointset/ground_pelvis/pelvis_ty/value	/jointset/hip_l/hip_flexion_l/value	/jointset/hip_l/hip_adduction_l/value	/jointset/hip_l/hip_rotation_l/value	/jointset/back/lumbar_extension/value	/jointset/patellofemoral_l/patellar_flexion_l/value	/jointset/knee_l/knee_flexion_l/value	/jointset/knee_l/knee_adduction_l/value	/jointset/knee_l/knee_rotation_l/value	/jointset/ankle_l/ankle_angle_l/value	/jointset/subtalar_l/subtalar_angle_l/value	/jointset/ground_pelvis/pelvis_tilt/speed	/jointset/ground_pelvis/pelvis_tx/speed	/jointset/ground_pelvis/pelvis_ty/speed	/jointset/hip_l/hip_flexion_l/speed	/jointset/hip_l/hip_adduction_l/speed	/jointset/hip_l/hip_rotation_l/speed	/jointset/back/lumbar_extension/speed	/jointset/patellofemoral_l/patellar_flexion_l/speed	/jointset/knee_l/knee_flexion_l/speed	/jointset/knee_l/knee_adduction_l/speed	/jointset/knee_l/knee_rotation_l/speed	/jointset/ankle_l/ankle_angle_l/speed	/jointset/subtalar_l/subtalar_angle_l/speed	/forceset/tau_hip_flexion_l	/forceset/tau_hip_adduction_l	/forceset/tau_hip_rotation_l	/forceset/tau_knee_flexion_l	/forceset/tau_ankle_angle_l	/forceset/tau_subtalar_angle_l	/forceset/tau_lumbar_extension	lambda_cid13_p0	lambda_cid13_p1	lambda_cid13_p2	lambda_cid13_p3	lambda_cid13_p4	lambda_cid13_p5	lambda_cid14_p0	/jointset/ground_pelvis/pelvis_tilt/accel	/jointset/ground_pelvis/pelvis_tx/accel	/jointset/ground_pelvis/pelvis_ty/accel	/jointset/hip_l/hip_flexion_l/accel	/jointset/hip_l/hip_adduction_l/accel	/jointset/hip_l/hip_rotation_l/accel	/jointset/back/lumbar_extension/accel	/jointset/patellofemoral_l/patellar_flexion_l/accel	/jointset/knee_l/knee_flexion_l/accel	/jointset/knee_l/knee_adduction_l/accel	/jointset/knee_l/knee_rotation_l/accel	/jointset/ankle_l/ankle_angle_l/accel	/jointset/subtalar_l/subtalar_angle_l/accel	gamma_cid13_p0	gamma_cid13_p1	gamma_cid13_p2	gamma_cid13_p3	gamma_cid13_p4	gamma_cid13_p5	gamma_cid14_p0
1	-0.1089073666939176	-0.05918105170008316	0.6815529392589283	1.328763502981215	-0.3279870786507531	0.07357646269457629	-0.959928385948597	1.400332120144699	1.400332120144955	-0.06630629732440187	-0.1744799999994112	0.278280658710868	0.06456795330106753	0.102974681155214	0.0254330410735886	0.06985630831043213	-0.297680984479633	-0.007369001713680015	-0.06526739923271056	-0.0004754019711856728	-0.160146709502347	-0.1601467095023469	-0.001726300965889036	-3.009627576391562e-05	0.02578162890741659	0.002684795110463298	-0.3723903645764306	0.01685867290434865	0.00150079719489411	-0.3788594584703897	0.04245510060322793	0.02461683396991405	0.4257735792710233	-37.7070535018917	-2.9883934105219	-1.23487227709312	12.96384958366243	-800.6185359952991	-68.72382367539863	-0.04152889696637415	0.7894298764839291	0.0007300712419792141	1.55255428111386	-4.970941574944741	-0.1289126962984059	-1.671660188172425	0.05646577083155734	-5.018626192746021	-5.018626192745145	-0.3503591443731324	-0.008191624889689223	-1.192092505268501	-0.6682269400750934	-8.929481771768367e-09	2.047813217996203e-08	6.547836225491966e-08	6.478259329777029e-09	-2.356649693800864e-08	1.262625703154893e-07	-1.688875907405419e-08
1.01	-0.1078384516076945	-0.05892663162332938	0.6823288917032497	1.32553901688893	-0.3280664539145686	0.07283937790277065	-0.9599297149717946	1.398480188724979	1.398480188725009	-0.06633911486622421	-0.1744797785448509	0.2784790045100626	0.06456247348293714	0.1108148556970788	0.0254571702076641	0.08532046749286176	-0.3471942739321373	-0.008496492992548567	-0.08214096382988872	0.0002233428693146797	-0.21022309153074	-0.2102230915307483	-0.004832702749065569	7.254120081429558e-05	0.01387702252520993	-0.003772752410168915	-0.3715701651213806	0.01705242994697114	0.001421274702951156	-0.3785081057880103	0.04224165515010333	0.02476462968622416	0.425352496302889	-37.73109488934663	-3.06319712490789	-1.206012167973392	12.85084387233714	-800.1341291453986	-68.78398664601183	-0.04156285883116227	0.7822870786380377	0.004186330325002517	1.541283839273924	-4.938231517576841	-0.1032416195425681	-1.69393312798744	0.07864066068235265	-4.999667084767541	-4.999667084769356	-0.2901161469413202	0.01923769470596233	-1.191220964162135	-0.6333309906884608	-1.548064190079605e-08	1.365891099154529e-08	9.493299988115598e-08	1.296599186435441e-08	-2.963063969155041e-08	1.475218568236125e-07	-2.336692334914056e-08
1.02	-0.106690939608935	-0.05867178385606792	0.6832590731598885	1.321820056124686	-0.3281568189463456	0.07193381175849599	-0.9599236441818576	1.396127988909598	1.396127988909402	-0.06640286351620543	-0.1744785814633692	0.278557988993542	0.06449265572307414	0.1186940636629632	0.02551857917512327	0.1007021107739517	-0.3965759188715823	-0.009566955305876344	-0.09896366972694459	0.001004560510746308	-0.260200388634397	-0.2602003886344188	-0.007912522598298459	0.000165029108368942	0.001909365764387401	-0.01018279323604772	-0.3707499656663257	0.017246186989596	0.001341752211030348	-0.3781567531056299	0.04202820969697814	0.02491242540253682	0.4249314133347579	-37.7665580169696	-3.134684726648056	-1.179184322992282	12.79515195448785	-799.7962869384035	-68.81928155667327	-0.04159752489912105	0.7972365612878741	0.008186037918698083	1.536051100845915	-4.944612672332886	-0.1175069031902491	-1.661488448147965	0.07296033101789963	-4.998809207798829	-4.998809207798948	-0.3450427575844016	-0.0102215386944021	-1.204702580991697	-0.6587256011244194	-2.263840903936284e-08	4.569726207411526e-09	1.232668295829279e-07	1.98381608805654e-08	-3.678200218239635e-08	1.658609511864902e-07	-2.97537270913696e-08
1.03	-0.1054648357965968	-0.05841589406390626	0.6843426345030013	1.317608105742507	-0.3282575903818926	0.0708603504634437	-0.9599074709802714	1.393276585419984	1.393276585419723	-0.06649731202331885	-0.1744764866713639	0.2785173007231093	0.06435914692528513	0.1264949848581657	0.02569004177410394	0.1159943955146631	-0.4457780371940318	-0.01057895445479913	-0.1157167486064566	0.002430588844636179	-0.3100573686947137	-0.3100573686947125	-0.01097567445488894	0.0002491691366381693	-0.01002576190020002	-0.01649719694273387	-0.3714129897307883	0.01756020812548263	0.001219578234984969	-0.3772478963485591	0.04158977685254589	0.02520103428781931	0.4262576116449722	-37.90069040354162	-3.268280759870673	-1.121632060704723	12.32955270810958	-800.3232882385821	-68.87636968924348	-0.04163876844977185	0.7667602303540373	0.02623113290712805	1.523443978288591	-4.902597247734317	-0.09180402361092038	-1.680470234040355	0.2075004419818598	-4.975694049460015	-4.975694049456501	-0.2867442555138721	0.01705302453991171	-1.184730846843798	-0.614549302226052	-2.98023660453739e-08	-4.542621470556097e-09	1.515892224691442e-07	2.671425271801754e-08	-4.394445875219438e-08	1.841702476703348e-07	-3.613959858326336e-08
1.04	-0.1041616747059641	-0.05815736869335095	0.6855786440570419	1.312905217009999	-0.3283682333295027	0.06961970785436061	-0.9598710222239387	1.389927301800905	1.389927301800576	-0.06662235062015853	-0.1744736862288837	0.2783578985785004	0.06416314378107212	0.1341055193220779	0.02604569485385372	0.131191752959569	-0.4947635889378151	-0.01154125771842664	-0.1323999325334707	0.005059671474823882	-0.3597764145275072	-0.359776414527483	-0.0140305405441796	0.0003061592030014149	-0.02183340907084867	-0.022681662520833	-0.3720760137952419	0.01787422926137118	0.001097404258966776	-0.376339039591487	0.04115134400811241	0.02548964317310336	0.4275838099551945	-38.04647120711392	-3.398472470270665	-1.066181551575331	11.91968578676262	-801.000856710403	-68.90905314714065	-0.0416791799586482	0.759159215029814	0.04502413407250678	1.517065641684817	-4.901299356599679	-0.1075677261311901	-1.647509457648391	0.3135711902776694	-4.971222362294199	-4.971222362294331	-0.3433856041244349	-0.01565153107559255	-1.17920648220396	-0.6327379754070196	-3.436976500691312e-08	-1.514262398605334e-08	1.783413956702698e-07	2.845363641368936e-08	-4.977254425331503e-08	1.938106152163271e-07	-4.164535467422221e-08
1.05	-0.1027833932028752	-0.05789437474789981	0.6869660776577432	1.3077137574431	-0.3284882077484901	0.06821268295510817	-0.9598024476714822	1.386081585693918	1.386081585693887	-0.06677792867172375	-0.1744704261397119	0.278080962678536	0.06390597278576884	0.1415144978135922	0.02658292578083444	0.1462715875925468	-0.5434709343955492	-0.01244011910141875	-0.1489873679796862	0.008839589999336647	-0.4093371877657108	-0.4093371877657032	-0.01708192531306285	0.0003446844395366512	-0.03354171056501673	-0.02872683635161304	-0.3721629237195097	0.01820384040738246	0.0009443066477561375	-0.3753121416781637	0.04102841436494416	0.02580403507760861	0.4283963130824239	-38.05441768334099	-3.567883772291871	-1.000036941803177	11.41772220759238	-801.1300079851258	-68.97000312836391	-0.04173522798555468	0.7263213510371807	0.06255332608838787	1.499924265640595	-4.846848512776295	-0.07904024246509384	-1.661746932779824	0.4378548311888164	-4.944052458897119	-4.9440524588995	-0.2855679211174477	0.01347460086695571	-1.164835487889478	-0.5865719316303933	-3.885602152956261e-08	-2.578911571522337e-08	2.050444995062365e-07	3.003249797993058e-08	-5.555893065853951e-08	2.031800787330115e-07	-4.712360715890184e-08
1.06	-0.101332111077906	-0.05762511234236339	0.6885036059830816	1.302036945147143	-0.328616769760924	0.06664030643246058	-0.9596905434042581	1.381741152323686	1.381741152323951	-0.06696393117254447	-0.1744668067882044	0.2776873050626568	0.06358911708321431	0.1487056436981083	0.02729938687090902	0.1612106978869776	-0.5918341347499257	-0.01325877640768525	-0.1654702572127704	0.01372561442988076	-0.4587198671764614	-0.4587198671764684	-0.0201154303958333	0.0003780116700276629	-0.04517775225383447	-0.0346186039710684	-0.3722498336437691	0.01853345155339455	0.0007912090365714886	-0.3742852437648391	0.04090548472177455	0.02611842698211392	0.4292088162096608	-38.07415717458155	-3.733846827365043	-0.9360223528554121	10.96939747235571	-801.4124451935016	-69.00798583012656	-0.04178953408622233	0.7155926936301698	0.08087016669126475	1.488920773975399	-4.832470335928199	-0.09152691078606046	-1.626600215022137	0.5347923714839757	-4.935603596803591	-4.935603596803334	-0.3398096669018708	-0.01669113228442598	-1.164754521133915	-0.6020567331420854	-4.31818943685127e-08	-3.708185676768551e-08	2.285002257246698e-07	3.116976582852845e-08	-6.074372069253576e-08	2.095971308083985e-07	-5.217415840252119e-08
1.07	-0.09980997778899477	-0.0573477856051887	0.6901897430068428	1.295878370455909	-0.3287530969876641	0.06490373560849522	-0.9595243929568198	1.376907910253166	1.376907910253218	-0.06718023163812667	-0.1744628937174737	0.2771776051011616	0.06321412764186937	0.1556859806489651	0.02819617607553611	0.1759853000188908	-0.6398071406131526	-0.01398993756185674	-0.1818207283758854	0.01967655305630544	-0.5078863907680985	-0.5078863907680993	-0.02314001525601217	0.0004036405496992162	-0.0567541394847633	-0.04035006013107464	-0.3718840473025399	0.01883347997652142	0.0006063193264562265	-0.3730221544660282	0.04094632002302879	0.02651566632954434	0.4296069467495338	-38.0021979884556	-3.962404454541457	-0.8499683896605998	10.43800314437488	-801.1620121858371	-69.11726691196759	-0.04185655412350706	0.6839951812439885	0.09862209649377381	1.467005653668717	-4.76867209431598	-0.06142754371846225	-1.635840779660995	0.6510563080634058	-4.900841804922787	-4.900841804922038	-0.2831162321962172	0.01210113269337027	-1.152869317037538	-0.5543281807737525	-4.749923616045752e-08	-4.840897278415255e-08	2.517832190911066e-07	3.228354464959209e-08	-6.589651091955177e-08	2.158571397220144e-07	-5.720195958012669e-08
